<svg xmlns="http://www.w3.org/2000/svg" width="46.122" height="40.411" viewBox="0 0 46.122 40.411"><g transform="translate(-162.18 -159.75)"><path d="M187.541,200.161H167.795a5.615,5.615,0,0,1-5.615-5.615V165.365a5.615,5.615,0,0,1,5.615-5.615H187.54a5.614,5.614,0,0,1,5.614,5.614v1.9a1.505,1.505,0,1,1-3.011,0v-1.895a2.6,2.6,0,0,0-2.6-2.6H167.795a2.6,2.6,0,0,0-2.6,2.6v29.182a2.6,2.6,0,0,0,2.6,2.6H187.54a2.6,2.6,0,0,0,2.6-2.6v-1.567a1.505,1.505,0,0,1,3.011,0v1.567A5.613,5.613,0,0,1,187.541,200.161Z"/><path d="M462.382,385.145l-6.676-6.676a1.506,1.506,0,0,0-2.129,2.129l4.1,4.1.064.061h-16.4a1.505,1.505,0,0,0,0,3.011h16.3l-4.564,4.564a1.284,1.284,0,0,0,.141,1.988,1.811,1.811,0,0,0,2.292-.163l6.881-6.881A1.505,1.505,0,0,0,462.382,385.145Z" transform="translate(-254.522 -206.384)"/></g></svg>