<svg xmlns="http://www.w3.org/2000/svg" width="430" height="163.964" viewBox="0 0 430 163.964">
  <g id="ppm-logo-light" transform="translate(-48 -128)">
    <g id="logo" transform="translate(48 128)">
      <path id="Path_1" data-name="Path 1" d="M526.676,561.172l-4.094.434-7.9-.43c.989-4.525-4.051-2.942-5.286-5.214,3.816,1.334,6.369-2.067,9.621-2.909,10.242-2.65,22.53-2.03,28.24-14.087a4.828,4.828,0,0,1,2.914-2.532c7.7-1.219,10.551-8.294,13.311-13.375a97.555,97.555,0,0,0,10.14-29.648c3.081-.513,5.337-3.779,8.9-2.668,3.87,6.219-1.287,11.2-2.906,16.271-4.952,15.517-12.364,30.012-25.322,40.515-8.056,6.529-17.608,10.73-27.627,13.643Z" transform="translate(-428.028 -412.161)" fill="#c3413e"/>
      <path id="Path_2" data-name="Path 2" d="M595.282,91.624c-3.567-1.112-5.823,2.155-8.9,2.668-.292-9.185-2.656-17.932-5.62-26.552.387-7.685-4.616-13.1-8.691-18.517-3.093-4.105-5.136-9.966-11.476-10.875l-13.119-8.276-1.4-1.126.037.05c-5.386-7.219-13.514-9.6-21.525-12.182,2.347-2.059,4.722-1.249,7.3-.363,2.861.982,5.714,2.172,8.923,1.847,2.89-.3,5.311-.107,7.147,3.2,1.845,3.327,5.85,2.537,9.134,2.078.534,2.329-2.179.593-2.134,2.388,3.027.55,6.425.49,9.118,1.837,2.918,1.458,6.621,1.572,6.378,7.9-.184,4.8,5.581,10.872,10.159,14.573,8.437,6.824,11.878,15.674,13.455,25.654.816,5.164,2.3,10.354,1.22,15.7Z" transform="translate(-440.783 -13.042)" fill="#c6514d"/>
      <path id="Path_3" data-name="Path 3" d="M346.438,3.772c8.011,2.585,16.138,4.961,21.525,12.182-5.244,1.647-9.434-2.211-13.773-3.578a68.713,68.713,0,0,0-24.943-3.07c-3.578.2-7.2-3.217-10.674.137-1.326-.094-2.664-.105-3.973-.308A2.173,2.173,0,0,1,312.577,7c.043-.6,1.126-1.241,1.858-1.656,8.274-4.7,17.757-3.4,26.6-5.292,2.931-.626,2.259,4.4,5.4,3.717Z" transform="translate(-262.641 -0.001)" fill="#a44345"/>
      <path id="Path_4" data-name="Path 4" d="M770.179,187.8c-3.123-4.631-6.182-9.308-9.4-13.872-1.222-1.732-2.339-3.893-5.088-3.572-.443-4.672-4-7.866-5.679-11.95,6.34.911,8.383,6.77,11.476,10.875,4.077,5.414,9.08,10.832,8.691,18.517Z" transform="translate(-630.203 -133.106)" fill="#a44345"/>
      <path id="Path_5" data-name="Path 5" d="M533.12,168.121c-3.016.048-5.96-.118-8.12-2.671C527.717,166.308,531.76,163.139,533.12,168.121Z" transform="translate(-441.136 -138.84)" fill="#0a67a8"/>
      <path id="Path_6" data-name="Path 6" d="M659.09,99.56c0,.019.01.037.016.056l.022-.006-.037-.05Z" transform="translate(-553.806 -83.657)" fill="#0a67a8"/>
      <path id="Path_7" data-name="Path 7" d="M157.72,154.41c-.722.5-.826,2.66-2.045,1.776-4.163-3.019-6.374.5-7.905,2.789a132.736,132.736,0,0,1-14.338,17.357C123.629,186.671,113,192.6,98.638,190.9l-4.094.434a16.881,16.881,0,0,1-13.115.024c-11.262-1.541-21.883-4.712-30.833-12.127L45.3,177.571c-3.316.732-4.059-2.538-6.04-3.883l-.073-.444-.444-.075c-.589-1.085-2.76-1.476-1.565-3.345-2.016-.629-2.888-1.954-2.377-4.116-.366-2.84-2.751-4.46-4.064-6.727-5.514-.877-7.468-5.846-10.72-9.322h0c-.252-3.029-3.375-5.62-1.374-8.993-5.621-5.859-2.741-13.169-2.2-19.463a27.384,27.384,0,0,1,6.393-15.392c1.18-4.621,2.521-9.127,7.746-10.867,3.862-4.658,7.893-9.132,13.3-12.084-.982-4.462-.075-8.2,4.091-10.691a10.4,10.4,0,0,1-.514-1.487,10.4,10.4,0,0,0,.514,1.487c5.428-3.109,11.613-4.124,17.386-6.283.858,0,1.716,0,2.573,0q.412,1.09.826,2.182a3.707,3.707,0,0,0,2.006-3.527c4.339-.827,7.862,1.942,11.843,2.695h0q.623.63,1.244,1.259c2.717.858,6.76-2.311,8.12,2.671,2.364,4.42,7.586,3.695,11.1,6.148,4.671,3.26,11.715,4.136,9.409,13.022-.57,2.2,2.182,6.431,6.062,7.481,4.061,6.2,8.091,1.131,12.131-.035l1.112-2.631c1.272-6.2-6.321-8.447-6.294-14.094,0-.639-.01-1.278-.014-1.918-.444-4.672-4-7.866-5.679-11.95l-13.119-8.276c-.863.142-1.2-.371-1.39-1.07-5.233,1.628-9.418-2.219-13.75-3.585A68.713,68.713,0,0,0,66.6,51.19c-3.578.2-7.2-3.217-10.674.137-9.359,5.222-21.231,6.3-27.223,16.964,2.1.045,4.714.506,5.661,2.8.578,1.4-1.4,2.7-2.629,3.468C25.255,78.624,20.575,84.248,16.823,90.8c-2.2,3.839-5.142,7.407-9.548,8.2C1.507,100.027.4,104.065.08,108.514A33.31,33.31,0,0,0,.945,118.9c1.161,4.762,4.755,9.342,2.888,14.527-1.96,5.444-1,10.894-.984,16.364-1.112,2,1.813,3.5.222,6.083-2.554,4.153,3.351,7.934,4.121,7.717,5.222-1.481,4.813,2.986,5.95,5.15,4.268,8.12,10.247,14.814,16.69,21.165,6.2,6.11,14.063,8.322,22.093,11.247,7.337,2.672,14.407,5.668,21.83,4.4,10.04-1.719,19.956-4,30.2-3.779,6.837.145,12.64-5.835,20.616-2.169,2.324,1.069,9.707-3.069,13.391-7.263.858-.976,2.626-1.882,1.749-3.124-.987-1.4-2.8-1.006-4.04.286-1.334,1.385-3.465,2.709-4.457.982-1.436-2.5,1.589-2.926,3.176-3.787,1.9-1.033,4.283-3.211,5.72-2.724,6.461,2.19,6.362-2.158,8.2-6.247,3.771-8.413,3.858-19.736,15.723-22.6v-1.334c-2.323-2.118-4.407-.693-6.313.625ZM76.188,62.172a5.906,5.906,0,0,0-3.326.626A5.893,5.893,0,0,1,76.188,62.172Zm1.179.232a6.387,6.387,0,0,0-1.067-.217A6.552,6.552,0,0,1,77.367,62.4Z" transform="translate(0.009 -41.884)" fill="#0a67a8"/>
      <path id="Path_8" data-name="Path 8" d="M232.856,800.362c-.021.03-.038.059-.056.088.053.016.1.034.157.049l-.1-.139Z" transform="translate(-195.611 -672.512)" fill="#0a67a8"/>
      <path id="Path_9" data-name="Path 9" d="M659.09,99.56l1.4,1.126C659.608,100.833,659.275,100.287,659.09,99.56Z" transform="translate(-553.806 -83.657)" fill="#a44345"/>
      <path id="Path_10" data-name="Path 10" d="M233.259,800.509c0-.027,0-.054.008-.081l-.107-.057Z" transform="translate(-195.914 -672.52)" fill="#c22e36"/>
      <path id="Path_11" data-name="Path 11" d="M171.805,227.14a6.432,6.432,0,0,0-3.433-1.663c-15.167-3.075-29.826-.618-44.329,3.8-5.412,2.952-9.441,7.426-13.3,12.084.067,3.057-.034,6.176,2.882,8.236h0c-2.914-2.061-2.813-5.179-2.88-8.236-5.225,1.74-6.565,6.246-7.746,10.867A27.366,27.366,0,0,0,96.6,267.626c-.537,6.292-3.418,13.6,2.2,19.463,1.351-2.367-.716-4.837.216-7.217,1.738-4.444.8-10.69,7.81-11.583h0c5.942,2.894,1.214,6.977,1.172,10.538-1.39.4-1.1,1.605-1.251,2.6v1.565c-1.252,7.958,2.827,14.932,4.145,22.416,1.315,2.267,3.7,3.886,4.064,6.727,1.751.813,2.773,2.067,2.54,4.086,1.377.725,3.132,1.286,1.4,3.377l.444.075.073.444c3.367-.811,5.508.284,6.04,3.883l5.294,1.656h0c8.95,7.415,19.571,10.586,30.833,12.127l5.219-.454c.989-4.525-4.051-2.942-5.286-5.214-4.485-2.591-10.03-.3-14.654-3.72-2.781-2.059-6.584-2.957-9.249-5.568a31.759,31.759,0,0,0-4.508,1.238,7.909,7.909,0,0,0-.834.411,8.4,8.4,0,0,1,.834-.411,31.971,31.971,0,0,1,4.508-1.238c-1.922-3.177-2.87-7.027-6.327-9.142a69.214,69.214,0,0,1-14-34.73q-.676-.688-1.351-1.377.383-2.717.768-5.436l.719-2.609c-.911-6.011,3.8-9.241,6.64-13.392q.093-1.282.188-2.565h0c5.738-5.5,11.926-10.266,19.926-12.028a12.711,12.711,0,0,1,1.252-.359c4.989-4.067,13.977-3.257,16.311,1.471l2.385,1.543,1.339.195c4.19,1.022,6.984,3.478,7.981,7.774,1.586.971,1.423,2.533,1.371,4.057l1.2,1.43c1.874.941,1.473,2.463,1.024,4q.022,1.224.045,2.45.1,5.329.2,10.658l1.519,5.444,1.506,0c3.754-2.5,7.024-5.925,7.65-10.166,2.525-17.134-3.923-31.175-16.158-42.9Zm-63.98,39.424c.089-.158.177-.316.265-.474Zm1.105-1.987c.166-.3.332-.6.5-.9Q109.179,264.129,108.931,264.577Zm7.41-14.48a.783.783,0,0,1,.131.061A.848.848,0,0,0,116.341,250.1Zm.92,2.613A2.545,2.545,0,0,0,119,253.994,2.551,2.551,0,0,1,117.261,252.71Z" transform="translate(-80.149 -188.308)" fill="#c22e36"/>
      <path id="Path_12" data-name="Path 12" d="M224.04,530.218q.383-2.717.765-5.437c1.27,1.575.567,3.514.966,5.252l-.379,1.562Q224.717,530.907,224.04,530.218Z" transform="translate(-188.251 -440.953)" fill="#703171"/>
      <path id="Path_13" data-name="Path 13" d="M161.547,584.485q-.474-.5-.947-1l.947-.561Z" transform="translate(-134.945 -489.805)" fill="#c22e36"/>
      <path id="Path_14" data-name="Path 14" d="M126.636,580.608c-.364-.457-.752-.732-.724-.949a17,17,0,0,1,.532-2.129c.192.342.534.68.542,1.027A11.36,11.36,0,0,1,126.636,580.608Z" transform="translate(-105.796 -485.276)" fill="#c6514d"/>
      <path id="Path_15" data-name="Path 15" d="M358.541,331.386a11.77,11.77,0,0,1,1.252-.356q4.088.228,8.175.452c.042,1.989-.887,3.733-2.8,3.751-4.572.043-7.108,3.535-10.509,5.551-1.5-.137-3.155.209-4.161-1.391,2.39-2.96,6.781-3.91,8.041-8Z" transform="translate(-294.51 -278.152)" fill="#43366f"/>
      <path id="Path_16" data-name="Path 16" d="M533.665,361.543c-1.38-.418-2.818-2.089-4.073.189-3.928-2.8-5.2-6.246-2.61-10.642,4.19,1.022,6.984,3.478,7.981,7.776a2.819,2.819,0,0,0-1.3,2.676Z" transform="translate(-441.664 -295.008)" fill="#43366f"/>
      <path id="Path_17" data-name="Path 17" d="M416.855,317.695q-4.088-.225-8.175-.452c4.99-4.069,13.979-3.259,16.311,1.47l-1.546.436C421.513,317.465,419.215,317.443,416.855,317.695Z" transform="translate(-343.397 -264.366)" fill="#a44345"/>
      <path id="Path_18" data-name="Path 18" d="M583.805,580.343a5.254,5.254,0,0,0-.035-1.062q.055-2,.117-3.99.776-.01,1.551-.021,1.1.733,2.2,1.466-.048,1.244-.094,2.489-.542.522-1.085,1.046Z" transform="translate(-490.518 -483.377)" fill="#703171"/>
      <path id="Path_19" data-name="Path 19" d="M319.928,600.321l-2.878.048q0-2,.006-4a4.864,4.864,0,0,1,1.04-.762c2.083,1,1.471,3.045,1.831,4.712Z" transform="translate(-266.403 -500.468)" fill="#2c377e"/>
      <path id="Path_20" data-name="Path 20" d="M607.412,579.252c.032-.829.062-1.658.1-2.489.513-.489,1.021-.976,1.53-1.463l1.506,0-1.778,4.035q-.678-.046-1.356-.088Z" transform="translate(-510.382 -483.402)" fill="#c22e36"/>
      <path id="Path_21" data-name="Path 21" d="M501.1,340.656l1.546-.436q1.2.769,2.387,1.541c-1.714,1.064-3.454,2.214-3.933-1.107Z" transform="translate(-421.053 -285.874)" fill="#c6514d"/>
      <path id="Path_22" data-name="Path 22" d="M345.134,635.326q-2.524,1.115-2.674-2.755Z" transform="translate(-287.754 -531.524)" fill="#2c377e"/>
      <path id="Path_23" data-name="Path 23" d="M601.723,600.04q.678.043,1.356.088c-.254,1.743-1.441,1.112-2.439.958l1.085-1.046Z" transform="translate(-504.693 -504.191)" fill="#a44345"/>
      <path id="Path_24" data-name="Path 24" d="M287,341.256a2.872,2.872,0,0,0-2.688,1.284c-2.2-.2-3.859.548-4.711,2.7a3.8,3.8,0,0,1-4.672,2.6q.093-1.284.187-2.565c5.739-5.5,11.926-10.266,19.926-12.028-1.26,4.094-5.652,5.045-8.041,8Z" transform="translate(-231.012 -280.017)" fill="#703171"/>
      <path id="Path_25" data-name="Path 25" d="M597.948,546.672l-1.53,1.463q-1.107-.733-2.208-1.466.05-1.9.1-3.808c.3-.526.607-1.049.911-1.575v-.049l.607.038.605-.045,1.519,5.444Z" transform="translate(-499.29 -454.775)" fill="#a44345"/>
      <path id="Path_26" data-name="Path 26" d="M601.091,485.149l-.605.045s-.607-.037-.607-.038c.331-3.556-.978-7.268,1.016-10.666q.1,5.329.2,10.658Z" transform="translate(-503.952 -398.696)" fill="#703171"/>
      <path id="Path_27" data-name="Path 27" d="M575.94,402.456a2.819,2.819,0,0,1,1.3-2.676c1.586.971,1.423,2.533,1.371,4.057A2.733,2.733,0,0,1,575.94,402.456Z" transform="translate(-483.939 -335.92)" fill="#703171"/>
      <path id="Path_28" data-name="Path 28" d="M601.128,438.118c-1.164-1.123-1.045-2.572-1.022-4C601.977,435.061,601.576,436.583,601.128,438.118Z" transform="translate(-504.232 -364.774)" fill="#703171"/>
      <path id="Path_29" data-name="Path 29" d="M450.416,344.087c-.332-3.922-2.8-7.036-4.011-10.627l-1.112,2.631c-4.04,1.164-8.07,6.231-12.131.035-.765,5.666,1.375,10.786,3.016,16-1.473,6.584-3.6,13.083-2.655,19.988a2.828,2.828,0,0,0-.262,1.182c-1.957.815-1,2.658-1.426,4.016-.69.216-1.2.561-.989,1.431a2.768,2.768,0,0,0-.27,1.179l-1.345,1.4v-.011l-9.423,8.048c-5.361,1.161-10.971,1.4-15.867,4.278h0l-7.982.008c.893,5.917-2.262,9.207-7.032,12.059-4.832,2.888-9.522,2.7-14.507,1.139.327,2.471,1.548,3.525,4.2,4.029,13.035,2.466,25.851,1.04,38.652-1.516,1.439-.288,1.272-1.541,1.51-2.548.8-.23,1.605-.462,2.409-.688,7.2-2.032,9.123-10.634,16.114-12.92,3.386.843,5.259-.853,6.383-3.8a2.241,2.241,0,0,0,.324-1.153,4.414,4.414,0,0,0,2.714-4.1h-.008l1.3-1.3v.006c3.775-3.42,2.53-7.851,2.426-12.052,1.243-8.905,2.254-17.809-.038-26.708Z" transform="translate(-314.609 -280.194)" fill="#0956a4"/>
      <path id="Path_30" data-name="Path 30" d="M273.617,435.594c-4.179-1.049-7.108-4.937-12.707-3.263-4.209,1.259-6.937-5.037-11.263-6.388q-2.524,1.115-2.674-2.755-.589-.6-1.18-1.195l-2.878.048c-1.981-.605-5.04-.5-2.656-4q-.012-2.664-.026-5.329.012,2.664.026,5.329,1.332,0,2.663,0a4.867,4.867,0,0,1,1.04-.762c-1.158-3.5-2.741-6.858-1.126-10.76.733-1.77-.12-3.386-2.49-3.4a1.419,1.419,0,0,0-.211-1.1,2.948,2.948,0,0,1-1.062-1.863,2.955,2.955,0,0,0,1.062,1.863c2.7-1.147,5.359-3.043,6.07-5.584,1.246-4.454,4.319-7.7,6.214-11.671-1.5-.137-3.155.209-4.161-1.391a2.87,2.87,0,0,0-2.688,1.286,11.165,11.165,0,0,1-1.679,10.2,11.164,11.164,0,0,0,1.677-10.2c-2.2-.2-3.858.548-4.711,2.7a3.8,3.8,0,0,1-4.672,2.6c-2.843,4.152-7.549,7.38-6.64,13.392q-.359,1.3-.722,2.607c1.27,1.575.567,3.514.966,5.254q-.187.779-.379,1.561a69.228,69.228,0,0,0,14,34.73c3.273-2.171,6.129-1.511,8.669,1.281,4.985,1.559,9.674,1.749,14.507-1.139,4.77-2.851,7.925-6.142,7.032-12.059Zm-30.606-39.7q-.316.335-.665.66Q242.694,396.23,243.011,395.894Zm-12.019,11.5c-.121,1.1.117,2.315-.567,3.238.684-.922.446-2.137.567-3.238a3.767,3.767,0,0,1,3.04-.272,3.765,3.765,0,0,0-3.038.273Zm6.96,4.268Zm.434.393c.069.054.139.107.211.155C238.526,412.163,238.455,412.111,238.387,412.056Z" transform="translate(-192.267 -322.14)" fill="#2c3791"/>
      <path id="Path_31" data-name="Path 31" d="M298.5,604.35q0-2,.006-4-1.332,0-2.663,0C293.454,603.853,296.513,603.744,298.5,604.35Z" transform="translate(-247.849 -504.451)" fill="#2c3791"/>
      <path id="Path_32" data-name="Path 32" d="M595.721,541.58q-.458.786-.911,1.575Q595.268,542.369,595.721,541.58Z" transform="translate(-499.794 -455.069)" fill="#703171"/>
      <path id="Path_33" data-name="Path 33" d="M492.941,420.617q-.026-1.227-.046-2.45c-1.164-1.123-1.045-2.572-1.022-4q-.6-.714-1.2-1.43A2.735,2.735,0,0,1,488,411.357c-1.38-.418-2.818-2.089-4.073.189.625,3.2,3.161,6.493-.7,9.452-1.152.882-.275,1.939.522,2.754q4.236,4.329-2.438,6.345a4.453,4.453,0,0,0-2.717,2.6l-1.279,1.241c-3.385,1.837-3.537,3.679-.011,5.53a3.345,3.345,0,0,1-.016,1.142,13.083,13.083,0,0,1-1.609,1.078c-1.6.773-4.961.158-4.31,2.671.647,2.49,3.188,1.58,5.49.72,4-1.492,8.271-2.235,12.429-3.292a5.25,5.25,0,0,0-.035-1.062h0q.06-2,.118-3.99a7.306,7.306,0,0,0-2.661-4.1,7.3,7.3,0,0,1,2.661,4.1l1.551-.021.1-3.808.909-1.575v-.05c.331-3.556-.976-7.268,1.016-10.666Zm-5.931,19.809c-1.748.15-3.5,1.014-5.249,1.337C483.51,441.441,485.262,440.575,487.009,440.426Zm-5.262,1.34a7.413,7.413,0,0,1-.808.1A7.363,7.363,0,0,0,481.748,441.767Zm3.137-9.719c.115.008.228.022.339.038C485.113,432.071,485,432.056,484.885,432.048Z" transform="translate(-395.999 -344.821)" fill="#2c3791"/>
    </g>
    <text id="PPM" transform="translate(251 252)" fill="#fff" font-size="110" font-family="PTSerif-Regular, PT Serif"><tspan x="0" y="0">PPM</tspan></text>
  </g>
</svg>
